#define 3f3f3e84c43a4bb3c7e48ceb81980d89krVCMRKUWnbDp63z_width 50
#define 3f3f3e84c43a4bb3c7e48ceb81980d89krVCMRKUWnbDp63z_height 50
static char 3f3f3e84c43a4bb3c7e48ceb81980d89krVCMRKUWnbDp63z_bits[] = {
  0xFF, 0xFE, 0xFE, 0xFF, 0xFE, 0xEE, 0x03, 0x01, 0x00, 0xE0, 0x1F, 0x00, 
  0x00, 0x02, 0x01, 0x00, 0xE0, 0x1F, 0x00, 0x00, 0x02, 0x01, 0x00, 0xE0, 
  0x1F, 0x00, 0x00, 0x00, 0x00, 0x00, 0xC0, 0x1F, 0x00, 0x00, 0x02, 0x01, 
  0x00, 0xE0, 0x1F, 0x00, 0x00, 0x02, 0x01, 0x00, 0xE0, 0x1F, 0x00, 0x00, 
  0x00, 0x01, 0x00, 0xC0, 0x1F, 0x00, 0x00, 0x02, 0x01, 0x00, 0xE0, 0x1F, 
  0x00, 0x00, 0x02, 0x01, 0x00, 0xE0, 0x1F, 0x00, 0x00, 0x00, 0x00, 0x00, 
  0xE0, 0x1F, 0x00, 0x00, 0x02, 0x01, 0x00, 0xE0, 0x1F, 0x00, 0x00, 0x02, 
  0x01, 0x00, 0xE0, 0x1F, 0x00, 0x00, 0x00, 0x01, 0x00, 0xE0, 0x1F, 0x00, 
  0x00, 0x02, 0x01, 0x00, 0xE0, 0x1F, 0x00, 0x00, 0x00, 0x01, 0x00, 0x38, 
  0x60, 0x00, 0x00, 0x02, 0x00, 0x00, 0x24, 0x82, 0x01, 0x00, 0x02, 0x01, 
  0x00, 0x02, 0x04, 0x01, 0x00, 0x02, 0x01, 0x00, 0x01, 0x00, 0x02, 0x00, 
  0x00, 0x01, 0x80, 0x14, 0x02, 0x04, 0x00, 0x02, 0x01, 0x80, 0x84, 0x00, 
  0x04, 0x00, 0x00, 0xF7, 0x7E, 0x01, 0x00, 0xF8, 0xED, 0x03, 0xFF, 0x7F, 
  0x10, 0x02, 0xF8, 0xFF, 0x03, 0xFF, 0x7F, 0x84, 0x00, 0xF8, 0xFF, 0x03, 
  0xFF, 0x7F, 0x21, 0x88, 0xF2, 0xFF, 0x03, 0xFF, 0x7F, 0x08, 0x01, 0xF8, 
  0xFF, 0x03, 0xFF, 0x7F, 0x80, 0x00, 0xF1, 0xFF, 0x03, 0xFF, 0x7F, 0x21, 
  0x84, 0xF8, 0xFF, 0x03, 0xFF, 0x7E, 0x08, 0x94, 0xF8, 0xBF, 0x03, 0x01, 
  0xC0, 0x60, 0x00, 0x0C, 0x00, 0x02, 0x01, 0x80, 0x40, 0x01, 0x04, 0x00, 
  0x02, 0x00, 0x00, 0x05, 0x44, 0x02, 0x00, 0x02, 0x01, 0x00, 0x20, 0x00, 
  0x03, 0x00, 0x00, 0x01, 0x00, 0x86, 0x86, 0x01, 0x00, 0x02, 0x01, 0x00, 
  0x08, 0xC0, 0x00, 0x00, 0x02, 0x01, 0x00, 0x70, 0x38, 0x00, 0x00, 0x00, 
  0x01, 0x00, 0xE0, 0x1F, 0x00, 0x00, 0x02, 0x01, 0x00, 0xE0, 0x1F, 0x00, 
  0x00, 0x02, 0x00, 0x00, 0xE0, 0x1F, 0x00, 0x00, 0x00, 0x01, 0x00, 0xE0, 
  0x1F, 0x00, 0x00, 0x02, 0x00, 0x00, 0xC0, 0x0F, 0x00, 0x00, 0x02, 0x01, 
  0x00, 0xE0, 0x1F, 0x00, 0x00, 0x02, 0x01, 0x00, 0xE0, 0x1F, 0x00, 0x00, 
  0x00, 0x01, 0x00, 0xC0, 0x1F, 0x00, 0x00, 0x02, 0x01, 0x00, 0xE0, 0x1F, 
  0x00, 0x00, 0x00, 0x01, 0x00, 0xE0, 0x1F, 0x00, 0x00, 0x02, 0x00, 0x00, 
  0xE0, 0x1F, 0x00, 0x00, 0x02, 0x01, 0x00, 0xE0, 0x1F, 0x00, 0x00, 0x02, 
  0x01, 0x00, 0xE0, 0x1F, 0x00, 0x00, 0x00, 0xFF, 0xFB, 0xFE, 0xFF, 0xFD, 
  0xFB, 0x03, };
